<?xml version="1.0" encoding="UTF-8" standalone="no"?>
<svg
   viewBox="0 0 300 120"
   version="1.1"
   id="svg2"
   height="120"
   width="300"
   sodipodi:docname="logo-dark-path.svg"
   inkscape:version="1.4.3 (0d15f75, 2025-12-25)"
   inkscape:export-filename="logo-dark.png"
   inkscape:export-xdpi="95.059998"
   inkscape:export-ydpi="95.059998"
   xmlns:inkscape="http://www.inkscape.org/namespaces/inkscape"
   xmlns:sodipodi="http://sodipodi.sourceforge.net/DTD/sodipodi-0.dtd"
   xmlns="http://www.w3.org/2000/svg"
   xmlns:svg="http://www.w3.org/2000/svg">
  <sodipodi:namedview
     id="namedview2"
     pagecolor="#505050"
     bordercolor="#eeeeee"
     borderopacity="1"
     inkscape:showpageshadow="0"
     inkscape:pageopacity="0"
     inkscape:pagecheckerboard="0"
     inkscape:deskcolor="#505050"
     inkscape:zoom="3.0715627"
     inkscape:cx="136.24986"
     inkscape:cy="66.252921"
     inkscape:window-width="1508"
     inkscape:window-height="828"
     inkscape:window-x="4"
     inkscape:window-y="33"
     inkscape:window-maximized="0"
     inkscape:current-layer="svg2" />
  <defs
     id="defs1">
    <style
       id="style1">
      .firstname {
        font-family: 'Georgia', 'Times New Roman', serif;
        font-size: 38px;
        font-weight: 300;
        font-style: italic;
        letter-spacing: 2px;
      }
      .lastname {
        font-family: 'Georgia', 'Times New Roman', serif;
        font-size: 22px;
        font-weight: 400;
        letter-spacing: 11px;
      }
    </style>
  </defs>
  <!-- First name -->
  <!-- Centre separator - two lines with gap for circle -->
  <!-- Last name -->
  <g
     id="g1">
    <path
       style="font-size:42.6667px;font-family:'Dancing Script';-inkscape-font-specification:'Dancing Script';letter-spacing:2px;text-anchor:middle;fill:#333333;stroke-width:0.980111"
       d="m 89.740015,54.037774 q 0.256001,-0.597334 1.408002,-3.157336 1.152,-2.517335 2.986668,-6.570671 1.877335,-4.096003 4.181337,-9.258674 2.346668,-5.205337 4.949338,-11.008008 0.128,-0.298667 0.256,-0.768 0.17067,-0.512001 0.17067,-0.981335 0,-0.469333 -0.29867,-0.768 -0.256,-0.341334 -1.152,-0.341334 -1.792,0 -2.986671,1.237335 -1.152001,1.194667 -1.749334,2.986668 -0.554667,1.792002 -0.554667,3.541336 0,0.426667 0,0.725334 0.04267,0.298667 0.08533,0.597334 -0.810667,0 -1.322668,-0.554667 -0.469333,-0.597334 -0.725334,-1.408001 -0.213333,-0.853334 -0.213333,-1.536001 0,-1.408001 0.768,-2.688002 0.768001,-1.280001 1.962669,-2.304002 1.237334,-1.024001 2.688005,-1.578668 1.49333,-0.597334 2.90133,-0.597334 1.408,0 2.34667,0.810668 0.98133,0.768 1.45067,2.816002 0.512,2.048001 0.512,5.930671 0,2.645335 -0.21333,5.632004 -0.17067,2.986669 -0.38401,5.888004 -0.21333,2.901336 -0.29866,5.290671 0.68267,-2.602669 1.92,-5.546671 1.28,-2.944002 2.77333,-5.845337 1.53601,-2.944003 3.02934,-5.504004 1.49333,-2.560002 2.688,-4.437337 1.19467,-1.877335 1.74934,-2.730669 0.59733,-0.853334 1.024,-1.280001 0.42666,-0.469333 1.10933,-0.469333 0.59734,0 1.36534,0.298666 -0.29867,0.768001 -0.85334,2.304002 -0.512,1.493335 -1.06667,3.669336 -0.68266,2.602669 -1.36533,5.930671 -0.68267,3.285336 -1.28,6.698672 -0.55467,3.413336 -0.896,6.442671 -0.34133,2.986669 -0.34133,5.034671 0,0.938667 0.0853,1.450668 0.0853,0.512 0.21333,0.896 0.17067,0.426667 0.34134,1.152001 -1.45067,0 -2.21867,-0.469334 -0.768,-0.469333 -1.024,-1.536001 -0.256,-1.024 -0.256,-2.773335 0,-5.077337 1.28,-10.880008 1.32267,-5.845338 2.98667,-12.117343 -1.23734,1.578668 -2.60267,4.01067 -1.32267,2.389335 -2.688,5.205337 -1.32267,2.773336 -2.56001,5.589338 -1.19466,2.773335 -2.13333,5.16267 -0.93867,2.389335 -1.45067,3.968003 -0.256,0.08533 -0.34133,0.128 -0.0853,0.04267 -0.29867,0.04267 -1.152,0 -1.536,-1.365334 -0.34133,-1.365335 -0.34133,-3.840003 0,-1.749335 0.0853,-4.13867 0.128,-2.432002 0.256,-4.992004 0.128,-2.560002 0.21333,-4.90667 0.128,-2.389335 0.128,-4.096003 0,-0.853334 -0.0427,-1.408001 0,-0.554667 -0.0427,-0.981334 -3.41334,7.936006 -5.717338,13.56801 -2.304002,5.589337 -3.882669,9.088007 -1.536002,3.498669 -2.730669,5.120004 -1.194668,1.621334 -2.346669,1.621334 z m 37.200035,-2.602669 q -1.664,0 -2.47467,-1.066667 -0.81067,-1.024001 -0.81067,-2.517335 0,-0.981334 0.34133,-2.474669 0.384,-1.493334 0.98134,-3.114669 0.59733,-1.664001 1.36533,-3.114669 0.81067,-1.450667 1.70667,-2.346668 0.896,-0.938667 1.74934,-0.938667 0.384,0 0.64,0.256 0.29866,0.213333 0.29866,0.682667 0,0.512 -0.68266,1.664001 -0.64001,1.152001 -1.53601,2.645335 -0.896,1.493335 -1.57866,3.157336 -0.64,1.621335 -0.64,3.114669 0,1.536001 0.512,2.048002 0.512,0.512 1.57866,0.512 1.45067,0 3.07201,-1.450668 1.664,-1.450667 3.49867,-5.077337 l 0.384,0.426667 q -1.23734,3.669336 -3.58401,5.632004 -2.304,1.962668 -4.82133,1.962668 z m 5.12,-19.541347 q -0.68267,0 -1.23733,-0.341334 -0.512,-0.341334 -0.512,-1.066667 0,-0.896001 1.024,-1.536002 1.06666,-0.682667 2.09066,-0.682667 0.64,0 1.02401,0.298667 0.384,0.298667 0.384,1.024001 0,0.810667 -0.89601,1.578668 -0.85333,0.725334 -1.87733,0.725334 z m 8.65597,20.821348 q -2.048,0 -3.41334,-1.365334 -1.36533,-1.365334 -1.36533,-4.096003 0,-2.133335 0.81067,-4.13867 0.85333,-2.048001 2.21866,-3.669336 1.36534,-1.621334 3.02934,-2.560002 1.664,-0.981334 3.28534,-0.981334 1.74933,0 2.38933,1.024001 0.64,1.024001 0.64,2.133335 0,1.237334 -0.59733,2.176002 -0.55467,0.938667 -1.536,0.938667 -0.72534,0 -1.23734,-0.640001 0.64,-0.341333 1.10934,-1.365334 0.46933,-1.066667 0.46933,-2.005335 0,-0.512 -0.21333,-0.768 -0.17067,-0.298667 -0.72534,-0.298667 -1.152,0 -2.38933,1.024001 -1.19467,1.024 -2.26134,2.645335 -1.024,1.621334 -1.70667,3.413336 -0.64,1.792001 -0.64,3.370669 0,1.322668 0.64,2.432002 0.64001,1.109334 2.47467,1.109334 1.70667,0 3.41334,-0.938667 1.74933,-0.938668 3.24267,-2.688002 1.49333,-1.749335 2.38933,-4.096004 l 0.55467,0.426667 q -0.98133,2.560002 -2.688,4.608004 -1.70667,2.005335 -3.75467,3.157336 -2.048,1.152 -4.13867,1.152 z m 23.88801,-0.768 q -1.19466,0 -2.048,-0.810667 -0.85333,-0.810668 -1.36533,-2.048002 -0.46934,-1.237334 -0.72534,-2.517335 -0.21333,-1.322668 -0.21333,-2.304002 0.46933,0 1.36533,-0.213333 0.89601,-0.256001 1.83467,-0.725334 0.93867,-0.512001 1.57867,-1.280001 0.68267,-0.810667 0.68267,-1.877335 0,-0.896001 -0.64,-1.408001 -0.64,-0.512 -1.49334,-0.512 -1.32266,0 -2.47467,0.938667 -1.152,0.896001 -2.09066,2.389335 -0.896,1.450668 -1.62134,3.114669 -0.72533,1.664001 -1.23733,3.157336 -0.512,1.493334 -0.85334,2.474668 -0.256,0.768001 -0.72533,1.024001 -0.46933,0.298667 -0.98133,0.298667 -0.72534,0 -1.06667,-0.597334 -0.29867,-0.597334 -0.384,-1.493334 -0.0427,-0.938668 -0.0427,-1.920002 0,-2.218668 0.72533,-5.120003 0.72534,-2.901336 1.92001,-6.016005 1.23733,-3.157336 2.688,-6.101338 1.45067,-2.944002 2.90133,-5.333337 1.45067,-2.389335 2.68801,-3.797336 1.23733,-1.408001 2.00533,-1.408001 0.59733,0 0.93867,0.810667 0.384,0.810667 0.384,1.962668 0,1.450668 -0.64,3.285336 -0.64,1.792001 -1.83467,3.626669 -1.152,1.834668 -2.77334,3.456003 -1.57866,1.621334 -3.456,2.773335 -1.408,3.456003 -2.13333,6.741339 -0.68267,3.242669 -0.68267,5.461337 0.68267,-1.706668 1.62133,-3.75467 0.98134,-2.048001 2.21867,-3.925336 1.23734,-1.877335 2.688,-3.072002 1.45067,-1.194668 3.02934,-1.194668 1.57867,0 2.688,1.109335 1.10934,1.109334 1.10934,2.688002 0,1.365334 -0.72534,2.346668 -0.68266,0.938667 -1.70667,1.536001 -0.98133,0.554667 -2.00533,0.853334 -0.98133,0.256 -1.62133,0.256 0.0427,0.341334 0.256,1.237334 0.21333,0.896001 0.59733,1.877335 0.42667,0.981334 1.024,1.706668 0.59733,0.682667 1.45067,0.682667 1.23733,0 2.34667,-0.938667 1.10933,-0.938667 2.09066,-2.474669 1.024,-1.578667 1.87734,-3.541336 l 0.42667,0.426667 q -0.59734,2.090669 -1.83467,3.968003 -1.23734,1.834668 -2.77334,2.986669 -1.49333,1.194668 -2.98667,1.194668 z M 158.3747,34.069759 q 1.96266,-1.578668 3.41333,-3.584002 1.49334,-2.005335 2.304,-3.840003 0.81067,-1.877335 0.81067,-2.944003 0,-0.213333 -0.0427,-0.298666 0,-0.08533 -0.0853,-0.08533 -0.42667,0 -1.49333,1.493335 -1.024,1.493334 -2.34667,3.968003 -1.32267,2.432001 -2.56,5.29067 z m 16.63464,18.261347 q -1.32267,0 -2.21867,-0.896001 -0.93867,-0.853333 -0.93867,-2.645335 0,-1.536001 0.68267,-3.285336 0.68267,-1.792001 1.87733,-3.498669 1.19467,-1.749335 2.68801,-3.157336 1.536,-1.450667 3.2,-2.304001 1.70667,-0.853334 3.37067,-0.853334 1.664,0 2.77333,0.896 1.10934,0.853334 1.10934,2.304002 0,1.066668 -0.59734,1.450668 -0.55466,0.384 -1.49333,0.384 0.0853,-0.341333 0.128,-0.725334 0.0853,-0.426667 0.0853,-0.768 0,-0.981334 -0.46933,-1.664002 -0.46933,-0.725333 -1.62134,-0.725333 -1.19466,0 -2.432,0.853334 -1.23733,0.810667 -2.38933,2.218668 -1.152,1.365334 -2.048,2.986669 -0.896,1.621334 -1.40801,3.200002 -0.512,1.578668 -0.512,2.816002 0,1.664002 1.15201,1.664002 0.98133,0 2.13333,-0.896001 1.152,-0.938668 2.34667,-2.346669 1.23733,-1.450667 2.34667,-2.986668 1.10933,-1.536002 1.96267,-2.816003 0.17066,-0.256 0.21333,-0.256 0.256,0.04267 0.64,0.170667 0.42667,0.128 0.72533,0.341334 0.29867,0.213333 0.29867,0.554667 0,0.384 -0.384,1.066667 -0.384,0.640001 -0.85333,1.493335 -0.46934,0.853334 -0.85334,1.749334 -0.384,0.853334 -0.384,1.621335 0,0.64 0.34133,1.280001 0.34134,0.597334 1.10934,0.597334 1.152,0 3.02933,-1.664002 1.87734,-1.706668 3.79734,-5.077337 l 0.42667,0.426667 q -0.896,2.304002 -2.304,4.053337 -1.40801,1.749334 -3.02934,2.730668 -1.57867,0.981334 -3.11467,0.981334 -1.57867,0 -2.34667,-0.938667 -0.72533,-0.938667 -0.72533,-2.048002 0,-0.256 0.0427,-0.554667 0.0427,-0.341333 0.0853,-0.682667 -1.83467,2.474669 -3.37067,3.712003 -1.49333,1.237334 -3.072,1.237334 z m 23.16271,-0.128 q -2.60266,0 -3.92533,-1.450668 -1.28,-1.408001 -1.28,-3.498669 0,-1.920001 0.93866,-4.053336 0.98134,-2.133335 2.56001,-4.01067 1.62133,-1.877335 3.54133,-3.029336 1.92,-1.194667 3.79734,-1.194667 0.98133,0 1.792,0.512 0.85333,0.512001 0.85333,2.090668 0,1.621335 -0.98133,3.072003 -0.93867,1.408001 -2.51734,2.517335 -1.536,1.109334 -3.41333,1.834668 -1.83467,0.682667 -3.66934,0.853334 -0.0853,0.426667 -0.128,0.810667 -0.0427,0.384001 -0.0427,0.725334 0,0.640001 0.128,1.280001 0.17066,0.640001 0.55466,1.194668 0.384,0.512 1.024,0.810667 0.68267,0.298667 1.664,0.298667 1.83467,0 3.62667,-1.024001 1.79201,-1.066667 3.32801,-2.773335 1.536,-1.706668 2.60267,-3.75467 l 0.512,0.384 q -1.15201,2.560002 -2.94401,4.437337 -1.74933,1.877335 -3.84,2.901336 -2.048,1.066667 -4.18134,1.066667 z m -2.09066,-7.168005 q 1.152,-0.384001 2.60266,-1.109334 1.45067,-0.768001 2.77334,-1.792002 1.36533,-1.024001 2.21867,-2.261335 0.896,-1.237334 0.896,-2.602668 0,-0.469334 -0.17067,-0.725334 -0.17066,-0.256 -0.72533,-0.256 -1.024,0 -2.176,0.810667 -1.152,0.768 -2.21867,2.048001 -1.06667,1.280001 -1.92,2.816002 -0.85334,1.536002 -1.28,3.072003 z m 11.73334,-12.757343 q -0.64,0 -1.10934,-0.298667 -0.46933,-0.298667 -0.46933,-0.981334 0,-0.810667 0.93867,-1.408001 0.93866,-0.597334 1.87733,-0.597334 0.59734,0 0.93867,0.256 0.34133,0.256 0.34133,0.938668 0,0.725334 -0.81066,1.408001 -0.768,0.682667 -1.70667,0.682667 z m -6.14401,-0.896001 q -0.64,0 -1.10933,-0.298667 -0.46933,-0.298667 -0.46933,-0.981334 0,-0.810667 0.93866,-1.408001 0.93867,-0.597334 1.87734,-0.597334 0.59733,0 0.93867,0.256001 0.34133,0.256 0.34133,0.938667 0,0.725334 -0.81067,1.408001 -0.768,0.682667 -1.70667,0.682667 z m 11.64268,20.224015 q -1.83467,0 -2.64533,-1.280001 -0.768,-1.237334 -0.768,-3.114669 0,-2.048001 0.768,-4.864003 0.768,-2.816002 2.00533,-5.930671 1.28,-3.114669 2.77334,-6.058672 1.49333,-2.986668 2.98667,-5.41867 1.49333,-2.432002 2.73066,-3.88267 1.28001,-1.450668 2.00534,-1.450668 0.46933,0 0.768,0.554668 0.29867,0.512 0.46933,1.28 0.17067,0.725334 0.17067,1.322668 0,1.152001 -0.59733,3.029336 -0.55467,1.834668 -1.62134,4.138669 -1.024,2.261335 -2.47467,4.608004 -1.408,2.304002 -3.11467,4.437337 -1.664,2.133334 -3.54133,3.669336 -0.256,1.152 -0.42667,2.261335 -0.128,1.066667 -0.128,2.048001 0,1.664001 0.46934,2.474669 0.46933,0.810667 1.408,0.810667 1.152,0 2.26133,-1.024001 1.152,-1.024001 2.13334,-2.560002 1.024,-1.578668 1.74933,-3.242669 l 0.64,0.341334 q -1.70667,3.626669 -3.712,5.760004 -2.00534,2.090668 -4.30934,2.090668 z m 0.29867,-10.410674 q 1.49333,-1.493335 2.90133,-3.413336 1.40801,-1.962668 2.60267,-4.053336 1.23734,-2.090669 2.176,-4.053337 0.93867,-1.962668 1.45067,-3.498669 0.512,-1.578668 0.512,-2.432002 0,-0.426667 -0.128,-0.554667 -0.0853,-0.128 -0.17066,-0.128 -0.34134,0 -1.19467,1.109334 -0.81067,1.066668 -1.92,2.901336 -1.10934,1.834668 -2.26134,4.181336 -1.152,2.346669 -2.21867,4.90667 -1.024,2.560002 -1.74933,5.034671 z"
       id="text1"
       class="firstname"
       aria-label="Mickaël" />
    <g
       id="g2"
       transform="translate(6.9393626,-2.7822668)">
      <path
         id="line1"
         style="stroke:#333333;stroke-width:0.75"
         d="m 100,66 h 46" />
      <path
         id="line2"
         style="stroke:#333333;stroke-width:0.75"
         d="m 154,66 h 46" />
      <path
         id="circle2"
         style="fill:#333333"
         d="M 152.5,66 A 2.5,2.5 0 0 1 150,68.5 2.5,2.5 0 0 1 147.5,66 2.5,2.5 0 0 1 150,63.5 2.5,2.5 0 0 1 152.5,66 Z" />
    </g>
    <path
       style="font-size:40.6335px;font-family:'Alegreya SC';-inkscape-font-specification:'Alegreya SC';letter-spacing:11px;text-anchor:middle;fill:#333333;stroke-width:1.0693"
       d="m 45.281914,99.256447 c 4.835386,0 8.329867,-1.62534 8.329867,-1.62534 l 0.243801,-0.365702 c 0.284435,-2.925612 1.097105,-6.62326 1.097105,-6.62326 l -1.950408,0.162534 c -1.015838,4.388418 -3.210047,6.420093 -6.907695,6.420093 -5.607423,0 -9.305071,-4.713486 -9.305071,-11.864982 0,-6.460726 3.494481,-10.56471 8.939369,-10.56471 3.982083,0 5.973125,1.259639 5.973125,3.778916 0,0.893937 -0.121901,1.991041 -0.121901,1.991041 l 1.950408,-0.162534 c 0.243801,-3.738282 1.015838,-6.785794 1.015838,-6.785794 l -0.162534,-0.243801 c 0,0 -3.697649,-0.975204 -7.070229,-0.975204 -8.207967,0 -14.181091,6.054391 -14.181091,14.302991 0,7.679732 4.754119,12.555752 12.149416,12.555752 z m 36.152112,-0.08127 c 0,0 2.925612,-0.406335 6.054391,-0.406335 1.381539,0 4.307151,0.1219 4.307151,0.1219 l 0.284435,-1.665973 -0.08127,-0.162534 C 89.641993,96.85907 88.748056,96.208934 88.09792,94.177259 85.050407,85.034722 81.637193,72.397704 81.637193,72.397704 h -0.325068 l -2.55991,0.690769 -7.923532,20.763718 c -0.893937,2.275476 -1.665974,2.966246 -3.169413,3.12878 l -0.325068,1.909774 c 0,0 2.519277,-0.1219 4.469685,-0.1219 2.68181,0 5.648056,0.284434 5.648056,0.284434 l 0.243801,-1.74724 -0.08127,-0.162534 h -2.31611 c -1.706607,0 -2.438009,-0.487602 -2.438009,-1.665974 0,-0.365701 0.1219,-0.853303 0.365701,-1.584706 l 1.503439,-4.225884 c 0.934571,-0.121901 2.844345,-0.325068 4.429052,-0.325068 1.137738,0 3.25068,0 4.225884,0.04063 l 1.340905,4.429052 c 0.243801,0.772036 0.365702,1.422172 0.365702,1.950408 0,0.975204 -0.81267,1.340905 -3.616382,1.544073 l -0.162534,1.584706 z M 75.460901,87.675899 79.321084,76.826755 h 0.284434 l 3.210047,10.645977 c -0.934571,0.08127 -2.681811,0.203167 -3.778916,0.203167 z m 50.373849,12.718281 1.17837,-0.568864 0.56887,-22.836027 c 0.0406,-1.584706 0.89394,-2.316109 2.76308,-2.55991 l 0.20316,-1.869141 c 0,0 -2.3161,0.325068 -4.02271,0.325068 -1.38154,0 -3.86018,-0.162534 -3.86018,-0.162534 l -0.36571,1.828507 0.0813,0.162534 c 0,0 0.81267,-0.04063 1.54407,-0.04063 0.89394,0 1.34091,0.568869 1.34091,1.74724 v 16.456567 h -0.20317 c 0,0 -6.90769,-9.670773 -13.65285,-20.154215 0,0 -1.38154,0.162534 -2.72245,0.162534 -1.13774,0 -3.49448,-0.203168 -3.49448,-0.203168 l -0.32507,1.50344 0.1219,0.203167 c 2.72245,0.284435 3.53512,0.853304 3.53512,2.519277 l -0.52824,17.756839 c -0.0406,1.665974 -0.8533,2.356743 -2.51927,2.559911 l -0.20317,1.869141 c 0,0 2.15357,-0.325068 3.77891,-0.325068 1.74724,0 4.30715,0.162534 4.30715,0.162534 l 0.36571,-1.828508 -0.0813,-0.162534 -2.07231,0.04063 c -0.93457,0 -1.25964,-0.406335 -1.25964,-1.62534 l 0.20317,-17.350504 h 0.20317 c 0,0 7.19213,10.036474 15.11566,22.389053 z m 29.9352,-1.137733 c 7.67973,0 13.61222,-6.257559 13.61222,-14.343626 0,-7.395296 -4.71348,-12.515117 -11.49928,-12.515117 -7.5172,0 -13.36842,6.257559 -13.36842,14.302991 0,7.435931 4.59159,12.555752 11.25548,12.555752 z m 1.25964,-2.072309 c -5.32299,0 -9.02064,-4.835386 -9.02064,-11.783715 0,-6.257558 3.45385,-10.564709 8.4924,-10.564709 5.48553,0 9.26444,4.835386 9.26444,11.783714 0,6.257559 -3.57575,10.56471 -8.7362,10.56471 z m 38.26506,2.072309 c 6.37946,0 10.07711,-3.25068 10.07711,-8.93937 V 76.664221 c 0,-1.665973 0.44696,-1.991041 2.80371,-2.316109 l 0.16253,-1.828508 c 0,0 -2.19421,0.365702 -3.94145,0.365702 -1.54407,0 -4.59158,-0.121901 -4.59158,-0.121901 l -0.28444,1.787874 0.0813,0.162534 c 0,0 1.25964,-0.08127 1.74724,-0.08127 1.17837,0 1.38154,0.325068 1.50344,2.194209 0,0 0.2438,10.402176 0.2438,13.246521 0,4.469685 -2.39738,6.867061 -6.82643,6.867061 -4.38842,0 -6.78579,-2.966245 -6.78579,-8.329867 l 0.32507,-11.946249 c 0.0813,-1.544073 0.56886,-2.031675 2.60054,-2.316109 l 0.16253,-1.828508 c 0,0 -2.51927,0.365702 -4.26651,0.365702 -1.54408,0 -4.59159,-0.121901 -4.59159,-0.121901 l -0.28443,1.787874 0.0813,0.162534 c 0,0 0.89394,-0.08127 1.38154,-0.08127 1.21901,0 1.50344,0.446969 1.50344,2.194209 v 13.449688 c 0,5.729324 3.21005,8.980004 8.89874,8.980004 z m 27.65972,0 c 1.58471,-0.284435 3.53512,-0.487602 4.71349,-0.487602 1.38154,0 3.86018,0.08127 5.32299,0.1219 l 0.3657,-1.869141 -0.0813,-0.162534 c -0.4876,0.04063 -1.42217,0.121901 -2.15358,0.121901 -1.42217,0 -1.78787,-0.568869 -1.78787,-2.763078 0,-3.372581 0.28444,-11.621181 0.56887,-17.553672 0.0813,-1.544073 0.69077,-2.031675 2.92561,-2.316109 l 0.16254,-1.828508 c -1.58471,0.203168 -3.53512,0.365702 -4.67286,0.365702 -1.219,0 -3.45384,-0.08127 -4.83538,-0.121901 l -0.28444,1.787874 0.0813,0.162534 c 0.52823,-0.04063 1.30027,-0.08127 1.70661,-0.08127 1.17837,0 1.50344,0.446969 1.50344,2.194209 l -0.0406,17.06607 c 0,2.275476 -0.69077,3.006879 -3.25068,3.494481 z m 26.1563,-0.08127 c 0,0 2.39738,-0.406335 5.44489,-0.406335 3.86019,0 10.93041,0.365701 10.93041,0.365701 l 0.20317,-0.243801 c 0.44697,-4.022716 1.17837,-7.720365 1.17837,-7.720365 l -0.1219,-0.203167 -1.78787,0.203167 c -0.89394,4.997921 -1.74724,5.769957 -6.46073,5.769957 -3.04751,0 -3.45384,-0.365701 -3.45384,-3.128779 0,-3.697649 0.1219,-10.605344 0.4876,-15.684531 0.20316,-2.722444 -0.0406,-3.413214 2.68181,-3.778915 l 0.16253,-1.828508 c 0,0 -2.60054,0.365702 -4.34778,0.365702 -1.54407,0 -4.55095,-0.121901 -4.55095,-0.121901 l -0.28444,1.787874 0.0813,0.162534 c 0,0 0.89394,-0.08127 1.38154,-0.08127 1.219,0 1.50344,0.446969 1.50344,2.194209 l -0.0406,17.06607 c 0,2.316109 -0.65013,3.088146 -2.76307,3.413214 z"
       id="text2"
       class="lastname"
       aria-label="CANOUIL" />
  </g>
</svg>
