<?xml version="1.0" encoding="UTF-8" standalone="no"?>
<!-- Generator: Adobe Illustrator 27.4.0, SVG Export Plug-In . SVG Version: 6.00 Build 0)  -->

<svg
   version="1.1"
   id="Layer_1"
   x="0px"
   y="0px"
   viewBox="0 0 640 320"
   enable-background="new 0 0 599 125.4"
   xml:space="preserve"
   sodipodi:docname="quarto-extensions.svg"
   width="640"
   height="320"
   inkscape:version="1.4.2 (ebf0e940, 2025-05-08)"
   inkscape:export-filename="quarto-extensions.png"
   inkscape:export-xdpi="192"
   inkscape:export-ydpi="192"
   xmlns:inkscape="http://www.inkscape.org/namespaces/inkscape"
   xmlns:sodipodi="http://sodipodi.sourceforge.net/DTD/sodipodi-0.dtd"
   xmlns="http://www.w3.org/2000/svg"
   xmlns:svg="http://www.w3.org/2000/svg"><defs
   id="defs11" /><sodipodi:namedview
   id="namedview11"
   pagecolor="#505050"
   bordercolor="#eeeeee"
   borderopacity="1"
   inkscape:showpageshadow="false"
   inkscape:pageopacity="0"
   inkscape:pagecheckerboard="false"
   inkscape:deskcolor="#d1d1d1"
   showborder="true"
   labelstyle="default"
   inkscape:clip-to-page="false"
   inkscape:zoom="0.92831024"
   inkscape:cx="354.40738"
   inkscape:cy="164.27698"
   inkscape:window-width="1512"
   inkscape:window-height="828"
   inkscape:window-x="0"
   inkscape:window-y="38"
   inkscape:window-maximized="0"
   inkscape:current-layer="g1" />








<g
   id="g1"
   transform="matrix(1.0000013,0,0,1.0000013,-5.6935542e-5,-1.978371e-4)"><g
     id="g11"
     transform="matrix(0.92467818,0,0,0.92467818,41.209529,57.999756)"><g
       id="g4">
	<path
   fill-rule="evenodd"
   clip-rule="evenodd"
   fill="#74aadb"
   d="M 56,54.4 V 1.5 C 27.9,3.5 5.6,26.2 4.1,54.4 Z"
   id="path1" />
	<path
   fill-rule="evenodd"
   clip-rule="evenodd"
   fill="#74aadb"
   d="m 63,54.4 h 52.9 C 114.4,25.9 91.5,3 63,1.5 Z"
   id="path2" />
	<path
   fill-rule="evenodd"
   clip-rule="evenodd"
   fill="#74aadb"
   d="M 56,61.4 H 4.2 c 2,27.7 24.1,49.9 51.8,51.8 z"
   id="path3" />
	<path
   fill-rule="evenodd"
   clip-rule="evenodd"
   fill="#74aadb"
   d="m 63,61.4 v 51.9 c 28.2,-1.5 50.9,-23.8 52.8,-51.9 z"
   id="path4" />
</g><path
       fill="#4f789e"
       d="m 586.1,23 h 2 v -4.4 h 1.4 l 2.6,4.4 h 2.1 l -2.8,-4.5 c 0.7,-0.1 1.3,-0.4 1.8,-0.8 0.5,-0.5 0.7,-1.2 0.7,-2.1 0,-1 -0.3,-1.8 -0.9,-2.4 -0.6,-0.6 -1.6,-0.8 -2.8,-0.8 h -4.1 z m 1.9,-8.9 h 1.4 c 0.3,0 0.6,0 0.9,0 0.3,0 0.6,0.1 0.8,0.2 0.2,0.1 0.4,0.2 0.6,0.5 0.2,0.2 0.2,0.5 0.2,0.8 0,0.3 -0.1,0.6 -0.2,0.8 -0.2,0.2 -0.3,0.4 -0.6,0.5 -0.2,0.1 -0.5,0.2 -0.8,0.2 -0.3,0 -0.6,0 -0.9,0 H 588 Z m -6.9,7.3 c 0.5,1.1 1.2,2.1 2,3 0.8,0.8 1.8,1.5 2.9,2 1.1,0.5 2.3,0.7 3.6,0.7 1.3,0 2.5,-0.2 3.6,-0.7 1.1,-0.5 2.1,-1.2 3,-2 0.8,-0.8 1.5,-1.8 2,-3 0.5,-1.1 0.7,-2.3 0.7,-3.6 0,-1.3 -0.2,-2.5 -0.7,-3.6 -0.5,-1.1 -1.2,-2.1 -2,-2.9 -0.8,-0.8 -1.8,-1.5 -3,-2 -1.1,-0.5 -2.3,-0.7 -3.6,-0.7 -1.3,0 -2.5,0.2 -3.6,0.7 -1.1,0.5 -2.1,1.2 -2.9,2 -0.8,0.8 -1.5,1.8 -2,2.9 -0.5,1.1 -0.7,2.3 -0.7,3.6 0,1.3 0.2,2.5 0.7,3.6 z m 1.5,-6.6 c 0.4,-0.9 0.9,-1.7 1.6,-2.4 0.7,-0.7 1.5,-1.2 2.4,-1.6 0.9,-0.4 1.9,-0.6 3,-0.6 1,0 2,0.2 3,0.6 0.9,0.4 1.7,0.9 2.4,1.6 0.7,0.7 1.2,1.5 1.6,2.4 0.4,0.9 0.6,1.9 0.6,3 0,1 -0.2,2 -0.6,3 -0.4,0.9 -0.9,1.7 -1.6,2.4 -0.7,0.7 -1.5,1.2 -2.4,1.6 -0.9,0.4 -1.9,0.6 -3,0.6 -1.1,0 -2,-0.2 -3,-0.6 -0.9,-0.4 -1.7,-0.9 -2.4,-1.6 -0.7,-0.7 -1.2,-1.5 -1.6,-2.4 -0.4,-0.9 -0.6,-1.9 -0.6,-3 0,-1.1 0.2,-2.1 0.6,-3 z"
       id="path5" /><path
       fill="#4f789e"
       d="m 214.6,24.8 v 13.1 c -5.8,-10.1 -16,-16.6 -29.4,-16.6 -21.3,0 -36.2,16.2 -36.2,38.1 0,22.1 14.9,37.9 36.2,37.9 13.4,0 23.7,-6.4 29.4,-16.5 V 123 c 0,1.4 1,2.4 2.4,2.4 h 4 c 1.4,0 2.4,-1 2.4,-2.4 V 24.8 c 0,-1.4 -1,-2.4 -2.4,-2.4 h -4 c -1.4,0 -2.4,1 -2.4,2.4 z m -28.5,64 c -17.1,0 -28.6,-12.2 -28.6,-29.4 0,-17.2 11.5,-29.8 28.6,-29.8 17.3,0 28.5,12.5 28.5,29.8 0,17.3 -11.2,29.4 -28.5,29.4 z"
       id="path6" /><path
       fill="#4f789e"
       d="m 298.4,24.8 v 42.1 c 0,14.6 -9.9,22.7 -22.7,22.7 C 263.1,89.6 253,81.4 253,66.9 V 24.8 c 0,-1.4 -1,-2.4 -2.4,-2.4 h -4 c -1.4,0 -2.4,1 -2.4,2.4 V 68 c 0,20.2 14.4,29.3 29.6,29.3 9.8,0 19.2,-3.8 24.6,-12.2 v 8.5 c 0,1.4 1,2.4 2.4,2.4 h 4 c 1.4,0 2.4,-1 2.4,-2.4 V 24.8 c 0,-1.4 -1,-2.4 -2.4,-2.4 h -4 c -1.4,0 -2.4,1 -2.4,2.4 z"
       id="path7" /><path
       fill="#4f789e"
       d="m 391.7,24.8 v 13 c -5.8,-10.1 -16,-16.5 -29.4,-16.5 -21.3,0 -36.2,15.8 -36.2,37.9 0,21.9 14.9,38.1 36.2,38.1 13.4,0 23.7,-6.6 29.4,-16.6 v 13 c 0,1.4 1,2.4 2.4,2.4 h 4 c 1.4,0 2.4,-1 2.4,-2.4 V 24.8 c 0,-1.4 -1,-2.4 -2.4,-2.4 h -4 c -1.4,0 -2.4,1 -2.4,2.4 z m -28.5,64 c -17.1,0 -28.6,-12.3 -28.6,-29.6 0,-17.3 11.5,-29.6 28.6,-29.6 17.3,0 28.5,12.3 28.5,29.6 0,17.3 -11.2,29.6 -28.5,29.6 z"
       id="path8" /><path
       fill="#4f789e"
       d="M 430.1,36 V 24.8 c 0,-1.4 -1,-2.4 -2.4,-2.4 h -4 c -1.4,0 -2.4,1 -2.4,2.4 v 68.8 c 0,1.4 1,2.4 2.4,2.4 h 4 c 1.4,0 2.4,-1 2.4,-2.4 V 54.4 c 0,-16 11.5,-23.5 23.7,-24.6 1.4,-0.2 2.2,-1.1 2.2,-2.6 v -3.5 c 0,-1.6 -0.8,-2.4 -2.4,-2.2 -9.7,0.7 -18.5,5.5 -23.5,14.5 z"
       id="path9" /><path
       fill="#4f789e"
       d="m 505,27 v -2.2 c 0,-1.4 -1,-2.4 -2.4,-2.4 h -16 V 2.4 C 486.6,1 485.6,0 484.2,0 h -4 c -1.4,0 -2.4,1 -2.4,2.4 v 20 h -8.2 c -1.4,0 -2.4,1 -2.4,2.4 V 27 c 0,1.4 1,2.4 2.4,2.4 h 8.2 v 50.2 c 0,10.4 6.4,16.3 16.5,16.3 h 7.5 c 1.4,0 2.4,-1 2.4,-2.4 V 91 c 0,-1.4 -1,-2.4 -2.4,-2.4 H 497 c -5.6,0 -10.4,-2.6 -10.4,-10.1 V 29.4 h 16 c 1.4,0 2.4,-0.9 2.4,-2.4 z"
       id="path10" /><path
       fill="#4f789e"
       d="m 552.7,97.4 c 22.1,0 37.1,-16.3 37.1,-38.2 0,-22.1 -15,-38.1 -37.1,-38.1 -22.1,0 -37.3,16 -37.3,38.1 0,21.9 15.2,38.2 37.3,38.2 z m 0,-8.6 c -17,0 -28.5,-12.6 -28.5,-29.6 0,-17 11.5,-29.6 28.5,-29.6 17,0 28.2,12.6 28.2,29.6 0,17 -11.3,29.6 -28.2,29.6 z"
       id="path11" /></g><path
     style="font-size:119.765px;line-height:1.25;font-family:Chalkboard;-inkscape-font-specification:Chalkboard;fill:#4f789e;stroke-width:0.935589"
     d="m 91.847294,244.11668 q 2.514404,-0.13234 4.102448,1.0587 1.720381,1.05869 2.117392,2.77907 0.529348,1.58805 -0.264674,3.44077 -0.661685,1.72038 -2.911414,3.04375 -4.764133,1.32337 -10.18995,2.11739 -5.425818,0.79402 -10.983973,1.0587 -5.558154,0.13233 -10.983972,-0.26468 -5.425818,-0.39701 -10.322287,-1.58804 -2.117392,-1.0587 -3.043752,-2.51441 -0.926359,-1.58804 -0.794022,-3.04375 v -0.13233 -58.09595 q -1.720381,-0.52935 -2.64674,-1.85272 -0.926359,-1.32337 -0.926359,-2.91142 0,-1.58804 1.058696,-3.04375 1.058696,-1.58804 3.308425,-2.38206 5.161144,-1.58805 10.454625,-2.1174 5.425817,-0.66168 10.851635,-0.79402 5.425818,-0.26467 10.851635,-0.26467 5.425818,0 10.719299,-0.26468 2.911414,-0.13233 4.499458,1.32337 1.720381,1.45571 1.985055,3.30843 0.264674,1.85272 -1.058696,3.70544 -1.191033,1.72038 -4.102447,2.38206 -7.940221,0.39701 -16.939138,0.26468 -8.86658,-0.13234 -17.203812,1.19103 v 23.29131 q 6.881524,0.26468 13.763049,0 7.013862,-0.39701 14.027724,-1.05869 2.911414,-0.13234 4.499458,1.32337 1.720382,1.45571 1.985056,3.30842 0.264674,1.85272 -1.058696,3.70544 -1.191034,1.72038 -4.102448,2.38207 -7.278536,0.66168 -14.689409,1.05869 -7.278536,0.39701 -14.424734,0.13234 v 21.4386 q 7.940221,1.19103 16.40979,0.66168 8.601906,-0.66168 16.012778,-2.64674 z M 156.4277,199.65144 q 2.24973,-1.85271 4.36712,-1.72038 2.24973,0.13234 3.5731,1.45571 1.32337,1.32337 1.45571,3.5731 0.13234,2.11739 -1.72038,4.36712 -4.89647,4.76413 -9.6606,9.6606 -4.6318,4.89647 -9.13126,9.92528 5.55816,6.35218 10.45463,13.10136 5.0288,6.61685 9.39593,13.76305 0.79402,2.51441 0,4.36712 -0.66169,1.85272 -2.1174,2.64674 -1.4557,0.92636 -3.44076,0.66169 -1.85272,-0.26467 -3.70544,-2.11739 -3.83777,-6.35218 -8.33723,-12.30735 -4.49946,-6.0875 -9.39593,-11.77799 -8.73424,10.7193 -16.67446,22.8943 -1.85272,2.24973 -4.10245,2.51441 -2.11739,0.26467 -3.70543,-0.92636 -1.58805,-1.0587 -2.1174,-3.17609 -0.39701,-2.24973 1.19104,-4.76413 4.10244,-6.48452 8.6019,-12.70436 4.6318,-6.21984 9.52827,-12.175 -4.23479,-4.6318 -8.73424,-9.13126 -4.36713,-4.63179 -8.86658,-9.26359 -2.1174,-2.11739 -2.24973,-4.23478 0,-2.24973 1.19103,-3.5731 1.32337,-1.45571 3.44076,-1.72038 2.24973,-0.39701 4.6318,1.32337 4.49946,4.63179 8.99891,9.26359 4.49946,4.49946 8.73425,9.13125 4.36712,-4.89647 8.99891,-9.6606 4.6318,-4.76413 9.39593,-9.39593 z m 30.30515,11.64566 q -2.91142,-0.39701 -4.36713,-1.98505 -1.32337,-1.58805 -1.32337,-3.44077 0,-1.85272 1.45571,-3.5731 1.58805,-1.85271 4.6318,-1.85271 h 7.41087 v -20.90925 q 0.66168,-2.64674 2.11739,-3.97011 1.45571,-1.32337 3.30843,-1.32337 1.72038,0 3.17609,1.19103 1.58804,1.19103 2.24973,3.70544 v 21.30626 h 12.70435 q 2.5144,0.66168 3.70544,2.24972 1.19103,1.45571 1.19103,3.17609 0,1.85272 -1.32337,3.30843 -1.32337,1.45571 -3.97011,2.11739 h -12.30734 q -0.13234,10.18995 0,21.04159 0.13233,10.71929 0.13233,20.90924 0,3.04376 -1.85272,4.6318 -1.72038,1.45571 -3.5731,1.45571 -1.85271,0 -3.44076,-1.45571 -1.58804,-1.32337 -1.98505,-4.23478 0,-10.32229 -0.13234,-21.17393 0,-10.85163 0,-21.17392 h -7.80788 z m 85.48959,31.0992 q 2.77908,-1.0587 4.76414,-0.26467 1.98505,0.79402 2.77907,2.5144 0.92636,1.72038 0.26468,3.83777 -0.52935,2.11739 -3.04375,3.5731 -4.36712,2.5144 -9.39593,4.6318 -5.02881,2.11739 -10.18995,2.91141 -5.16115,0.79402 -10.18995,-0.13234 -5.02881,-0.79402 -9.6606,-3.97011 -5.55816,-3.83777 -8.46957,-10.32228 -2.91142,-6.61685 -3.04375,-13.63072 -0.13234,-7.14619 2.5144,-13.63071 2.77908,-6.61685 8.6019,-10.58696 6.08751,-4.10245 13.23371,-6.0875 7.1462,-2.11739 14.42473,-0.52935 3.5731,0.79402 6.48452,3.44076 2.91141,2.51441 4.63179,5.95517 1.85272,3.30842 1.98506,7.1462 0.13233,3.70543 -1.85272,7.01386 -2.24973,3.70543 -6.48452,6.35217 -4.23478,2.51441 -9.26359,4.36713 -4.89647,1.72038 -9.92527,2.91141 -4.89647,1.19103 -8.60191,2.24973 -1.58804,0.39701 -3.04375,0.13234 1.98505,4.23478 5.82283,7.01386 3.97011,2.64674 9.79294,2.24973 4.63179,-0.26468 9.26359,-2.51441 4.76413,-2.38206 8.6019,-4.63179 z m -25.80571,-28.18779 q -4.89647,2.51441 -7.27854,7.1462 -2.38207,4.49946 -2.38207,9.52827 0.92636,-0.66169 1.98506,-1.0587 2.38207,-0.66168 4.76413,-1.32337 2.5144,-0.79402 5.02881,-1.4557 1.58804,-0.39702 4.23478,-1.19104 2.77908,-0.79402 5.69049,-1.85272 2.91142,-1.05869 5.29349,-2.38206 2.38206,-1.45571 3.17608,-3.17609 0.26468,-4.36712 -2.11739,-5.95517 -2.38207,-1.58804 -5.69049,-1.58804 -3.30843,0 -6.88153,1.19103 -3.57309,1.0587 -5.82282,2.11739 z m 91.57719,39.70111 q -0.13233,3.04375 -1.85272,4.49946 -1.58804,1.58804 -3.5731,1.58804 -1.85271,0 -3.44076,-1.4557 -1.58804,-1.32337 -1.98505,-4.23479 0,-6.0875 -0.13234,-12.04267 0,-6.0875 0,-12.175 0,-4.36712 0,-8.73425 0.13234,-4.36712 -0.52935,-8.73424 -1.05869,-1.98505 -2.38206,-2.38207 -1.19104,-0.52934 -2.91142,-0.52934 -4.49946,0 -8.86658,2.24973 -4.36712,2.11739 -6.88152,5.95516 -1.45571,2.24973 -2.38207,3.83777 -0.79402,1.45571 -1.0587,4.36713 0,6.74918 0,13.49837 0,6.74919 0.13234,13.49838 -0.13234,3.04375 -1.85272,4.63179 -1.58804,1.45571 -3.5731,1.45571 -1.85271,0 -3.44076,-1.32337 -1.58804,-1.45571 -1.98505,-4.36712 0,-6.35218 0,-12.30734 0,-5.95517 -0.13234,-11.778 0,-5.82283 0,-11.77799 0,-6.08751 0,-12.43968 0.66168,-2.64674 2.11739,-3.97011 1.45571,-1.32337 3.30843,-1.32337 1.72038,0 3.17608,1.19103 1.58805,1.19103 2.24973,3.70544 v 1.05869 q 3.83778,-3.30842 8.60191,-5.16114 4.89647,-1.98506 9.79294,-1.98506 4.89647,0 9.13125,2.24973 4.36713,2.24973 7.01387,7.27854 0.92635,1.72038 1.19103,4.36712 0.39701,2.5144 0.39701,5.42582 0.13234,2.77908 0,5.82283 -0.13234,2.91141 -0.13234,5.55815 v 15.61577 8.86658 z m 10.32239,-5.69049 q -1.19103,-2.38207 -0.79402,-4.23479 0.39701,-1.98505 1.58804,-3.04375 1.32337,-1.19103 3.30843,-1.19103 1.98505,0 4.10244,1.45571 3.04376,3.83777 7.1462,5.95516 4.23479,2.11739 8.99892,2.51441 l 2.77908,-0.79403 q 1.05869,-0.79402 1.4557,-1.05869 0.39702,-0.26468 0.52935,-0.39701 0.26468,-0.26468 0.52935,-0.66169 0.39701,-0.39701 1.19103,-1.45571 0.26468,-0.52934 0.39702,-1.05869 0.13233,-0.52935 0.39701,-1.19104 0,-0.66168 0,-1.19103 0.13233,-0.52935 0.13233,-1.19103 l -0.79402,-2.38207 q -0.39701,-0.52935 -0.92636,-1.05869 -0.39701,-0.52935 -0.79402,-1.0587 -3.30843,-2.11739 -6.61685,-3.04375 -3.30843,-0.92636 -6.48451,-1.85272 -3.04376,-1.0587 -6.08751,-2.64674 -2.91141,-1.58804 -5.55815,-5.16114 -2.51441,-3.17609 -2.77908,-7.27854 -0.13234,-4.23478 1.32337,-8.07256 1.58805,-3.83777 4.49946,-6.74919 3.04375,-3.04375 6.88152,-3.83777 5.55816,-1.32337 11.24865,-0.26467 5.82283,1.05869 10.85164,3.70543 2.38206,1.72038 2.77907,3.97011 0.39701,2.1174 -0.66168,3.70544 -0.92636,1.58804 -3.04375,2.24973 -1.98506,0.66168 -4.6318,-0.66169 -3.17609,-1.72038 -6.74919,-2.24972 -3.44076,-0.52935 -7.01386,0 -0.39701,0.26467 -0.92636,0.39701 -0.39701,0.13233 -0.79402,0.39701 -1.45571,1.58804 -2.11739,3.17609 -0.66169,1.4557 -0.52935,3.70543 0.13234,0.52935 0.66169,1.58805 0.39701,0.52934 0.79402,0.92636 0.39701,0.39701 0.79402,0.92635 3.17609,1.72039 6.88152,2.77908 3.83778,0.92636 7.41088,2.24973 3.5731,1.19103 6.61685,3.30843 3.04375,1.98505 4.76413,5.95516 3.17609,7.54321 0.92636,13.89539 -2.11739,6.35218 -8.73424,10.7193 -1.72038,1.05869 -3.83778,1.72038 -2.11739,0.79402 -3.97011,0.79402 -7.1462,0 -14.02772,-3.17609 -6.88153,-3.30842 -11.11631,-9.13125 z m 67.4918,5.42582 q -0.13234,3.04375 -1.85272,4.49945 -1.58804,1.58805 -3.5731,1.58805 -1.85272,0 -3.44076,-1.45571 -1.58804,-1.32337 -1.98506,-4.23478 -0.13233,-12.43968 -0.26467,-25.40871 0,-12.96903 -0.13234,-25.40871 0.66169,-2.64674 2.1174,-3.97011 1.4557,-1.32337 3.30842,-1.32337 1.72038,0 3.17609,1.19104 1.58804,1.19103 2.24973,3.70543 0.13234,12.43968 0.13234,25.40871 0.13233,12.96903 0.26467,25.40871 z M 403.6331,181.65361 q 0,-2.91142 1.85272,-4.89647 1.85272,-2.11739 4.49946,-2.11739 2.64674,0 4.49946,2.11739 1.98506,1.98505 1.98506,4.89647 0,2.77908 -1.98506,4.89647 -1.85272,1.98505 -4.49946,1.98505 -2.64674,0 -4.49946,-1.98505 -1.85272,-2.11739 -1.85272,-4.89647 z m 27.52608,43.80355 q 1.45571,-4.23478 3.5731,-8.20489 2.11739,-4.10245 5.02881,-7.41088 2.91141,-3.30842 6.61685,-5.69049 3.83777,-2.38206 8.46957,-3.44076 7.67554,-1.72038 13.36603,1.19103 5.82283,2.91142 9.2636,8.33723 3.44076,5.42582 4.49945,12.43968 1.19104,6.88153 -0.52934,13.23371 -1.98506,7.80788 -7.01387,14.55707 -5.0288,6.74919 -12.70435,9.79294 -5.69049,2.24973 -10.98397,1.58804 -5.16114,-0.52935 -9.39593,-3.30842 -4.10245,-2.77908 -7.01386,-7.27854 -2.91142,-4.49946 -3.97011,-10.18995 -0.66169,-3.5731 -0.52935,-7.01386 0.26467,-3.44077 0.92636,-6.88153 z m 10.32229,3.04375 q -0.52935,2.77908 -0.79402,5.16115 -0.13234,2.24973 0.26467,5.16114 0.39701,3.5731 2.24973,6.48451 1.85272,2.77908 4.49946,4.36713 2.64674,1.4557 5.82283,1.4557 3.30842,-0.13233 6.61685,-2.11739 4.36712,-2.64674 6.88152,-6.88152 2.64674,-4.23479 3.97011,-9.13126 1.0587,-3.97011 0.39701,-8.46957 -0.52934,-4.49946 -2.64674,-7.94022 -2.11739,-3.44076 -5.69049,-4.89647 -3.5731,-1.58804 -8.46957,0.39701 -5.29348,2.24973 -8.33723,6.74919 -3.04375,4.49946 -4.76413,9.6606 z m 100.57605,25.40871 q -0.13234,3.04375 -1.85272,4.49946 -1.58804,1.58804 -3.5731,1.58804 -1.85271,0 -3.44076,-1.4557 -1.58804,-1.32337 -1.98505,-4.23479 0,-6.0875 -0.13234,-12.04267 0,-6.0875 0,-12.175 0,-4.36712 0,-8.73425 0.13234,-4.36712 -0.52935,-8.73424 -1.0587,-1.98505 -2.38207,-2.38207 -1.19103,-0.52934 -2.91141,-0.52934 -4.49946,0 -8.86658,2.24973 -4.36712,2.11739 -6.88152,5.95516 -1.45571,2.24973 -2.38207,3.83777 -0.79402,1.45571 -1.0587,4.36713 0,6.74918 0,13.49837 0,6.74919 0.13234,13.49838 -0.13234,3.04375 -1.85272,4.63179 -1.58804,1.45571 -3.5731,1.45571 -1.85272,0 -3.44076,-1.32337 -1.58804,-1.45571 -1.98506,-4.36712 0,-6.35218 0,-12.30734 0,-5.95517 -0.13233,-11.778 0,-5.82283 0,-11.77799 0,-6.08751 0,-12.43968 0.66168,-2.64674 2.11739,-3.97011 1.45571,-1.32337 3.30843,-1.32337 1.72038,0 3.17608,1.19103 1.58805,1.19103 2.24973,3.70544 v 1.05869 q 3.83778,-3.30842 8.60191,-5.16114 4.89647,-1.98506 9.79294,-1.98506 4.89647,0 9.13125,2.24973 4.36712,2.24973 7.01386,7.27854 0.92636,1.72038 1.19104,4.36712 0.39701,2.5144 0.39701,5.42582 0.13234,2.77908 0,5.82283 -0.13234,2.91141 -0.13234,5.55815 v 15.61577 8.86658 z m 10.32239,-5.69049 q -1.19103,-2.38207 -0.79402,-4.23479 0.39701,-1.98505 1.58804,-3.04375 1.32337,-1.19103 3.30843,-1.19103 1.98505,0 4.10244,1.45571 3.04375,3.83777 7.1462,5.95516 4.23479,2.11739 8.99892,2.51441 l 2.77908,-0.79403 q 1.05869,-0.79402 1.4557,-1.05869 0.39701,-0.26468 0.52935,-0.39701 0.26468,-0.26468 0.52935,-0.66169 0.39701,-0.39701 1.19103,-1.45571 0.26468,-0.52934 0.39701,-1.05869 0.13234,-0.52935 0.39701,-1.19104 0,-0.66168 0,-1.19103 0.13234,-0.52935 0.13234,-1.19103 l -0.79402,-2.38207 q -0.39701,-0.52935 -0.92636,-1.05869 -0.39701,-0.52935 -0.79402,-1.0587 -3.30843,-2.11739 -6.61685,-3.04375 -3.30843,-0.92636 -6.48452,-1.85272 -3.04375,-1.0587 -6.0875,-2.64674 -2.91141,-1.58804 -5.55815,-5.16114 -2.51441,-3.17609 -2.77908,-7.27854 -0.13234,-4.23478 1.32337,-8.07256 1.58804,-3.83777 4.49946,-6.74919 3.04375,-3.04375 6.88152,-3.83777 5.55816,-1.32337 11.24865,-0.26467 5.82283,1.05869 10.85163,3.70543 2.38207,1.72038 2.77908,3.97011 0.39701,2.1174 -0.66168,3.70544 -0.92636,1.58804 -3.04375,2.24973 -1.98506,0.66168 -4.6318,-0.66169 -3.17609,-1.72038 -6.74919,-2.24972 -3.44076,-0.52935 -7.01386,0 -0.39701,0.26467 -0.92636,0.39701 -0.39701,0.13233 -0.79402,0.39701 -1.45571,1.58804 -2.11739,3.17609 -0.66169,1.4557 -0.52935,3.70543 0.13234,0.52935 0.66168,1.58805 0.39701,0.52934 0.79403,0.92636 0.39701,0.39701 0.79402,0.92635 3.17609,1.72039 6.88152,2.77908 3.83778,0.92636 7.41088,2.24973 3.5731,1.19103 6.61685,3.30843 3.04375,1.98505 4.76413,5.95516 3.17609,7.54321 0.92636,13.89539 -2.11739,6.35218 -8.73424,10.7193 -1.72039,1.05869 -3.83778,1.72038 -2.11739,0.79402 -3.97011,0.79402 -7.1462,0 -14.02772,-3.17609 -6.88153,-3.30842 -11.11631,-9.13125 z"
     id="text11"
     aria-label="Extensions" /></g></svg>
