<?xml version="1.0" encoding="UTF-8" standalone="no"?>
<!-- Generator: Adobe Illustrator 27.4.0, SVG Export Plug-In . SVG Version: 6.00 Build 0)  -->

<svg
   version="1.1"
   id="Layer_1"
   x="0px"
   y="0px"
   viewBox="0 0 640 320"
   enable-background="new 0 0 599 125.4"
   xml:space="preserve"
   sodipodi:docname="quarto-extensions.svg"
   width="640"
   height="320"
   inkscape:version="1.3.2 (091e20e, 2023-11-25)"
   inkscape:export-filename="quarto-extensions.png"
   inkscape:export-xdpi="192"
   inkscape:export-ydpi="192"
   xmlns:inkscape="http://www.inkscape.org/namespaces/inkscape"
   xmlns:sodipodi="http://sodipodi.sourceforge.net/DTD/sodipodi-0.dtd"
   xmlns="http://www.w3.org/2000/svg"
   xmlns:svg="http://www.w3.org/2000/svg"><defs
   id="defs11" /><sodipodi:namedview
   id="namedview11"
   pagecolor="#505050"
   bordercolor="#eeeeee"
   borderopacity="1"
   inkscape:showpageshadow="false"
   inkscape:pageopacity="0"
   inkscape:pagecheckerboard="false"
   inkscape:deskcolor="#d1d1d1"
   showborder="true"
   labelstyle="default"
   inkscape:clip-to-page="false"
   inkscape:zoom="0.92831024"
   inkscape:cx="353.86877"
   inkscape:cy="164.27698"
   inkscape:window-width="1512"
   inkscape:window-height="828"
   inkscape:window-x="0"
   inkscape:window-y="38"
   inkscape:window-maximized="1"
   inkscape:current-layer="Layer_1" />








<g
   id="g11"
   transform="matrix(0.92467818,0,0,0.92467818,41.209529,57.999756)"><g
     id="g4">
	<path
   fill-rule="evenodd"
   clip-rule="evenodd"
   fill="#74aadb"
   d="M 56,54.4 V 1.5 C 27.9,3.5 5.6,26.2 4.1,54.4 Z"
   id="path1" />
	<path
   fill-rule="evenodd"
   clip-rule="evenodd"
   fill="#74aadb"
   d="m 63,54.4 h 52.9 C 114.4,25.9 91.5,3 63,1.5 Z"
   id="path2" />
	<path
   fill-rule="evenodd"
   clip-rule="evenodd"
   fill="#74aadb"
   d="M 56,61.4 H 4.2 c 2,27.7 24.1,49.9 51.8,51.8 z"
   id="path3" />
	<path
   fill-rule="evenodd"
   clip-rule="evenodd"
   fill="#74aadb"
   d="m 63,61.4 v 51.9 c 28.2,-1.5 50.9,-23.8 52.8,-51.9 z"
   id="path4" />
</g><path
     fill="#4f789e"
     d="m 586.1,23 h 2 v -4.4 h 1.4 l 2.6,4.4 h 2.1 l -2.8,-4.5 c 0.7,-0.1 1.3,-0.4 1.8,-0.8 0.5,-0.5 0.7,-1.2 0.7,-2.1 0,-1 -0.3,-1.8 -0.9,-2.4 -0.6,-0.6 -1.6,-0.8 -2.8,-0.8 h -4.1 z m 1.9,-8.9 h 1.4 c 0.3,0 0.6,0 0.9,0 0.3,0 0.6,0.1 0.8,0.2 0.2,0.1 0.4,0.2 0.6,0.5 0.2,0.2 0.2,0.5 0.2,0.8 0,0.3 -0.1,0.6 -0.2,0.8 -0.2,0.2 -0.3,0.4 -0.6,0.5 -0.2,0.1 -0.5,0.2 -0.8,0.2 -0.3,0 -0.6,0 -0.9,0 H 588 Z m -6.9,7.3 c 0.5,1.1 1.2,2.1 2,3 0.8,0.8 1.8,1.5 2.9,2 1.1,0.5 2.3,0.7 3.6,0.7 1.3,0 2.5,-0.2 3.6,-0.7 1.1,-0.5 2.1,-1.2 3,-2 0.8,-0.8 1.5,-1.8 2,-3 0.5,-1.1 0.7,-2.3 0.7,-3.6 0,-1.3 -0.2,-2.5 -0.7,-3.6 -0.5,-1.1 -1.2,-2.1 -2,-2.9 -0.8,-0.8 -1.8,-1.5 -3,-2 -1.1,-0.5 -2.3,-0.7 -3.6,-0.7 -1.3,0 -2.5,0.2 -3.6,0.7 -1.1,0.5 -2.1,1.2 -2.9,2 -0.8,0.8 -1.5,1.8 -2,2.9 -0.5,1.1 -0.7,2.3 -0.7,3.6 0,1.3 0.2,2.5 0.7,3.6 z m 1.5,-6.6 c 0.4,-0.9 0.9,-1.7 1.6,-2.4 0.7,-0.7 1.5,-1.2 2.4,-1.6 0.9,-0.4 1.9,-0.6 3,-0.6 1,0 2,0.2 3,0.6 0.9,0.4 1.7,0.9 2.4,1.6 0.7,0.7 1.2,1.5 1.6,2.4 0.4,0.9 0.6,1.9 0.6,3 0,1 -0.2,2 -0.6,3 -0.4,0.9 -0.9,1.7 -1.6,2.4 -0.7,0.7 -1.5,1.2 -2.4,1.6 -0.9,0.4 -1.9,0.6 -3,0.6 -1.1,0 -2,-0.2 -3,-0.6 -0.9,-0.4 -1.7,-0.9 -2.4,-1.6 -0.7,-0.7 -1.2,-1.5 -1.6,-2.4 -0.4,-0.9 -0.6,-1.9 -0.6,-3 0,-1.1 0.2,-2.1 0.6,-3 z"
     id="path5" /><path
     fill="#4f789e"
     d="m 214.6,24.8 v 13.1 c -5.8,-10.1 -16,-16.6 -29.4,-16.6 -21.3,0 -36.2,16.2 -36.2,38.1 0,22.1 14.9,37.9 36.2,37.9 13.4,0 23.7,-6.4 29.4,-16.5 V 123 c 0,1.4 1,2.4 2.4,2.4 h 4 c 1.4,0 2.4,-1 2.4,-2.4 V 24.8 c 0,-1.4 -1,-2.4 -2.4,-2.4 h -4 c -1.4,0 -2.4,1 -2.4,2.4 z m -28.5,64 c -17.1,0 -28.6,-12.2 -28.6,-29.4 0,-17.2 11.5,-29.8 28.6,-29.8 17.3,0 28.5,12.5 28.5,29.8 0,17.3 -11.2,29.4 -28.5,29.4 z"
     id="path6" /><path
     fill="#4f789e"
     d="m 298.4,24.8 v 42.1 c 0,14.6 -9.9,22.7 -22.7,22.7 C 263.1,89.6 253,81.4 253,66.9 V 24.8 c 0,-1.4 -1,-2.4 -2.4,-2.4 h -4 c -1.4,0 -2.4,1 -2.4,2.4 V 68 c 0,20.2 14.4,29.3 29.6,29.3 9.8,0 19.2,-3.8 24.6,-12.2 v 8.5 c 0,1.4 1,2.4 2.4,2.4 h 4 c 1.4,0 2.4,-1 2.4,-2.4 V 24.8 c 0,-1.4 -1,-2.4 -2.4,-2.4 h -4 c -1.4,0 -2.4,1 -2.4,2.4 z"
     id="path7" /><path
     fill="#4f789e"
     d="m 391.7,24.8 v 13 c -5.8,-10.1 -16,-16.5 -29.4,-16.5 -21.3,0 -36.2,15.8 -36.2,37.9 0,21.9 14.9,38.1 36.2,38.1 13.4,0 23.7,-6.6 29.4,-16.6 v 13 c 0,1.4 1,2.4 2.4,2.4 h 4 c 1.4,0 2.4,-1 2.4,-2.4 V 24.8 c 0,-1.4 -1,-2.4 -2.4,-2.4 h -4 c -1.4,0 -2.4,1 -2.4,2.4 z m -28.5,64 c -17.1,0 -28.6,-12.3 -28.6,-29.6 0,-17.3 11.5,-29.6 28.6,-29.6 17.3,0 28.5,12.3 28.5,29.6 0,17.3 -11.2,29.6 -28.5,29.6 z"
     id="path8" /><path
     fill="#4f789e"
     d="M 430.1,36 V 24.8 c 0,-1.4 -1,-2.4 -2.4,-2.4 h -4 c -1.4,0 -2.4,1 -2.4,2.4 v 68.8 c 0,1.4 1,2.4 2.4,2.4 h 4 c 1.4,0 2.4,-1 2.4,-2.4 V 54.4 c 0,-16 11.5,-23.5 23.7,-24.6 1.4,-0.2 2.2,-1.1 2.2,-2.6 v -3.5 c 0,-1.6 -0.8,-2.4 -2.4,-2.2 -9.7,0.7 -18.5,5.5 -23.5,14.5 z"
     id="path9" /><path
     fill="#4f789e"
     d="m 505,27 v -2.2 c 0,-1.4 -1,-2.4 -2.4,-2.4 h -16 V 2.4 C 486.6,1 485.6,0 484.2,0 h -4 c -1.4,0 -2.4,1 -2.4,2.4 v 20 h -8.2 c -1.4,0 -2.4,1 -2.4,2.4 V 27 c 0,1.4 1,2.4 2.4,2.4 h 8.2 v 50.2 c 0,10.4 6.4,16.3 16.5,16.3 h 7.5 c 1.4,0 2.4,-1 2.4,-2.4 V 91 c 0,-1.4 -1,-2.4 -2.4,-2.4 H 497 c -5.6,0 -10.4,-2.6 -10.4,-10.1 V 29.4 h 16 c 1.4,0 2.4,-0.9 2.4,-2.4 z"
     id="path10" /><path
     fill="#4f789e"
     d="m 552.7,97.4 c 22.1,0 37.1,-16.3 37.1,-38.2 0,-22.1 -15,-38.1 -37.1,-38.1 -22.1,0 -37.3,16 -37.3,38.1 0,21.9 15.2,38.2 37.3,38.2 z m 0,-8.6 c -17,0 -28.5,-12.6 -28.5,-29.6 0,-17 11.5,-29.6 28.5,-29.6 17,0 28.2,12.6 28.2,29.6 0,17 -11.3,29.6 -28.2,29.6 z"
     id="path11" /></g><text
   xml:space="preserve"
   style="font-style:normal;font-weight:normal;font-size:119.765px;line-height:1.25;font-family:sans-serif;fill:#4f789e;fill-opacity:1;stroke:none;stroke-width:0.935589"
   x="39.177162"
   y="257.87973"
   id="text11"><tspan
     sodipodi:role="line"
     id="tspan11"
     x="39.177162"
     y="257.87973"
     style="font-style:normal;font-variant:normal;font-weight:normal;font-stretch:normal;font-size:119.765px;font-family:Chalkboard;-inkscape-font-specification:Chalkboard;stroke-width:0.935589">Extensions</tspan></text></svg>
